<mxfile host="app.diagrams.net" modified="2023-09-14T04:32:55.085Z" agent="Mozilla/5.0 (Windows NT 10.0; Win64; x64) AppleWebKit/537.36 (KHTML, like Gecko) Chrome/116.0.0.0 Safari/537.36" version="21.7.1" etag="gLB2U69ZE-22CO5LvfrP" type="github">
  <diagram name="Page-1" id="M4kB130-G1V1a3R9l8ib">
    <mxGraphModel>
      <root>
        <mxCell id="0" />
        <mxCell id="1" parent="0" />
      </root>
    </mxGraphModel>
  </diagram>
</mxfile>
